<?xml version="1.0" encoding="utf-8"?>
<!-- Generated by IcoMoon.io -->
<!DOCTYPE svg PUBLIC "-//W3C//DTD SVG 1.1//EN" "http://www.w3.org/Graphics/SVG/1.1/DTD/svg11.dtd">
<svg version="1.1" xmlns="http://www.w3.org/2000/svg" xmlns:xlink="http://www.w3.org/1999/xlink" width="512" height="512" viewBox="0 0 512 512">
<g>
</g>
	<path d="M7029.965 37002.681c0 15.394-12.48 27.874-27.873 27.874-15.394 0-27.873-12.48-27.873-27.874 0-15.394 12.48-27.874 27.873-27.874 15.394 0 27.873 12.48 27.873 27.874z" fill="#000000" />
	<path d="M6832.282 37085.624l-1.218 0.215-1.177 0.563z" fill="#000000" />
	<path d="M6870.681 37069.957l-0.051-0.502c-0.113-0.942-0.072-1.863-0.041-2.775l-39.526 19.149 1.218-0.215-2.386 0.778 1.167-0.563-20.89 3.645 30.966 5.56 34.498-12.165-4.792-12.462-0.164-0.45z" fill="#000000" />
	<path d="M6844.068 37101.056l-2.233-0.399-2.099 0.707z" fill="#000000" />
	<path d="M6877.44 37088.921l-35.605 11.735 2.233 0.399-4.332 0.297 2.099-0.696-72.212-12.861-2.663 1.382-26.276 23.327 29.757-6.533-0.973-0.185 5.611-0.84-4.639 1.024 72.704 12.944 2.15-0.696 47.626-15.719c-3.123-0.717-6.073-2.038-8.663-4.065-3.175-2.519-5.448-5.817-6.82-9.513z" fill="#000000" />
	<path d="M6769.48 37105.797l0.973 0.185 4.639-1.024z" fill="#000000" />
	<path d="M6878.535 37067.366c0 0.297-0.113 0.573-0.092 0.912l4.598 11.981 1.813-0.645-6.318-12.247z" fill="#000000" />
	<path d="M6885.079 37086.402c0.87 2.253 2.119 4.321 4.065 5.857 2.898 2.304 6.502 3.318 10.168 2.898 0 0 2.498-0.297 6.38-0.738l-4.403-13.363-16.21 5.346z" fill="#000000" />
	<path d="M6997.391 37038.622h-0.092l0.020 0.082z" fill="#000000" />
	<path d="M6876.16 37083.904c0.041 0.256 0.133 0.522 0.174 0.778l0.072 0.185-0.246-0.963z" fill="#000000" />
	<path d="M6978.887 37030.635l0.123 0.020 0.409-0.103z" fill="#000000" />
	<path d="M6878.434 37068.575c-0.020-0.113 0.020-0.215 0.020-0.287l-0.246-0.676 0.225 0.963z" fill="#000000" />
	<path d="M7061.985 37029.868l-63.815 12.585-24.167 5.264c5.427 6.082 18.473 16.589 31.181 29.122l60.877-32.082 184.709 7.004 2.078-11.315-190.864-10.578z" fill="#000000" />
	<path d="M7081.626 37082.696l-6.451-4.188-5.52 5.468z" fill="#000000" />
	<path d="M7102.331 37051.556l-27.157 26.952 6.451 4.188-11.971 1.28 5.52-5.468-27.648-17.838-19.671 10.086 49.89 32.226 5.499-5.478 43.12-44.964z" fill="#000000" />
	<path d="M7029.637 37089.065l-5.673-4.649-6.492 5.223z" fill="#000000" />
	<path d="M7066.736 37050.204l-42.773 34.212 5.673 4.649-12.165 0.573 6.492-5.223-8.766-7.137-10.834 5.56-3.4-2.704-34.97-33.26-8.468 11.796 66.959 50.463 5.878-5.315 58.675-52.9z" fill="#000000" />
	<path d="M6970.43 37040.702l-3.789 5.274 7.711-2.079z" fill="#000000" />
	<path d="M6965.412 37046.302l0.583 0.573 0.645-0.901z" fill="#000000" />
	<path d="M6966.641 37045.975l7.711-2.079c0 0 16.773-3.881 18.821-4.423-2.222-5.683-7.824-9.503-14.162-8.817l-88.412 22.518c-7.178 0.84-12.267 7.096-12.052 14.192l6.318 12.247-1.813 0.645 0.686 1.792 0.185 0.45 0.051 0.502c0.133 1.198 0.666 2.304 1.106 3.399l16.22-5.335 4.403 13.363c19.763-2.304 79.544-9.277 79.565-9.277 2.058-0.215 3.953-1.116 5.703-2.283l-12.913-24.535-12.052-11.448 0.635-0.912z" fill="#000000" />
	<path d="M268.81 24.709c2.611-0.102 5.315 0.051 7.987 0.184 0.215-0.246 0.338-0.42 0.338-0.42l-8.325 0.235z" fill="#000000" />
	<path d="M464.589 182.733c1.639-12.534-4.557-41.206-58.777-98.621 0 0-70.185-56.361-129.014-59.218-3.144 4.045-29.675 40.192-36.526 104.325 33.608-6.502 124.18-14.787 224.317 53.514z" fill="#000000" />
	<path d="M251.31 148.787c-5.171 0.738-9.421 1.536-12.493 2.222-0.881 29.45 2.406 63.601 13.374 102.584 0 0 144.917 6.318 199.393 116.194 13.599-18.258 49.858-75.796 29.522-148.327-3.861-3.185-7.7-6.236-11.561-9.185l-218.235-63.488z" fill="#000000" />
	<path d="M99.553 87.654c-1.331 1.741-2.672 3.461-3.963 5.273 0 0-49.337 23.654-70.738 137.697 0 0-1.198 91.525 20.296 117.637 0 0 61.471 10.24 96.409-6.656-12.257-14.776-87.204-113.152-42.005-253.952z" fill="#000000" />
	<path d="M226.652 132.464c2.908-31.181 11.847-67.174 31.048-106.947 0 0-72.038-9.677-129.7 33.997l4.045 1.802c-2.703 6.021-5.079 11.961-7.322 17.838l24.259 237.865c5.232 7.363 3.113 18.462 3.113 18.462 17.684-3.942 57.785-14.162 90.286-70.206 0 0-23.112-53.381-15.76-132.547l-0.102-0.236c0.041-0.010 0.102-0.020 0.133-0.030z" fill="#000000" />
	<path d="M180.377 472.822l1.751-0.44c0.286-0.062 7.506-1.956 19.026-7.024l140.319-146.227c3.010-6.656 5.858-13.609 8.612-20.818-48.281-25.385-88.259-29.973-88.259-29.973-60.948 116.286-204.482 93.962-204.482 93.962-5.54 15.841 19.825 38.615 19.825 38.615 47.504 53.637 80.712 70.922 102.359 74.476l-0.696-1.557c-0.010 0 1.516-0.993 1.546-1.014z" fill="#000000" />
	<path d="M368.455 308.91c-39.834 102.471-105.902 149.75-146.411 170.025 148.859 42.138 222.587-84.377 222.587-84.377-16.077-38.758-45.363-66.274-76.175-85.647z" fill="#000000" />
	<path d="M251.31 148.787l218.235 63.478c-93.184-71.178-181.125-68.833-218.235-63.478z" fill="#000000" />
	<path d="M226.519 132.485l0.102 0.236c0-0.071 0-0.174 0.030-0.266-0.030 0.020-0.092 0.030-0.133 0.030z" fill="#000000" />
	<path d="M361.247 298.526v0 0z" fill="#000000" />
	<path d="M341.483 319.13l-140.319 146.227c32.276-14.172 98.304-53.187 140.319-146.227z" fill="#000000" />
	<path d="M148.982 317.020l-24.258-237.875c-45.599 119.941 2.212 206.786 24.258 237.875z" fill="#000000" />
</svg>
